<svg width="24" height="24" viewBox="0 0 24 24" fill="none" xmlns="http://www.w3.org/2000/svg">
<path d="M17.9998 21H5.99978C5.82737 20.9995 5.65802 20.9545 5.50815 20.8693C5.35828 20.7841 5.23299 20.6616 5.14443 20.5136C5.05588 20.3657 5.00708 20.1974 5.00276 20.0251C4.99844 19.8527 5.03875 19.6822 5.11978 19.53L9.99978 10.46V3H13.9998V10.46L18.8798 19.53C18.9608 19.6822 19.0011 19.8527 18.9968 20.0251C18.9925 20.1974 18.9437 20.3657 18.8551 20.5136C18.7666 20.6616 18.6413 20.7841 18.4914 20.8693C18.3415 20.9545 18.1722 20.9995 17.9998 21Z" stroke="#FF4346" stroke-width="2" stroke-linecap="round" stroke-linejoin="round"/>
<path d="M9 3H15" stroke="#FF4346" stroke-width="2" stroke-linecap="round" stroke-linejoin="round"/>
</svg>
