<svg width="24" height="24" viewBox="0 0 24 24" fill="none" xmlns="http://www.w3.org/2000/svg">
<path d="M10 3C6 10 4 11 4 15C4 16.5913 4.63214 18.1174 5.75736 19.2426C6.88258 20.3679 8.4087 21 10 21C11.5913 21 13.1174 20.3679 14.2426 19.2426C15.3679 18.1174 16 16.5913 16 15C16 11 14 10 10 3Z" stroke="white" stroke-width="2" stroke-linecap="round" stroke-linejoin="round"/>
<path d="M16 22C16 22 20 20 20 17V13.5L16 12L12 13.5V17C12 20 16 22 16 22Z" fill="white" stroke="black" stroke-linecap="round" stroke-linejoin="round"/>
</svg>
