<svg width="24" height="25" viewBox="0 0 24 25" fill="none" xmlns="http://www.w3.org/2000/svg">
<path d="M14.6999 6.79998C14.5166 6.98691 14.414 7.23823 14.414 7.49998C14.414 7.76173 14.5166 8.01305 14.6999 8.19998L16.2999 9.79998C16.4868 9.98321 16.7381 10.0858 16.9999 10.0858C17.2616 10.0858 17.5129 9.98321 17.6999 9.79998L21.4699 6.02998C21.9727 7.14117 22.1249 8.37921 21.9063 9.57913C21.6877 10.779 21.1086 11.8838 20.2461 12.7463C19.3837 13.6087 18.2789 14.1878 17.079 14.4064C15.8791 14.6251 14.641 14.4728 13.5299 13.97L6.61986 20.88C6.22203 21.2778 5.68246 21.5013 5.11986 21.5013C4.55725 21.5013 4.01768 21.2778 3.61986 20.88C3.22203 20.4822 2.99854 19.9426 2.99854 19.38C2.99854 18.8174 3.22203 18.2778 3.61986 17.88L10.5299 10.97C10.027 9.85879 9.87477 8.62075 10.0934 7.42083C10.312 6.22092 10.8911 5.11614 11.7536 4.2537C12.616 3.39127 13.7208 2.81215 14.9207 2.59352C16.1206 2.3749 17.3587 2.52714 18.4699 3.02998L14.7099 6.78998L14.6999 6.79998Z" stroke="white" stroke-width="2" stroke-linecap="round" stroke-linejoin="round"/>
</svg>
