<svg width="24" height="25" viewBox="0 0 24 25" fill="none" xmlns="http://www.w3.org/2000/svg">
<path d="M17.9998 21.5H5.99978C5.82737 21.4995 5.65802 21.4545 5.50815 21.3693C5.35828 21.2841 5.23299 21.1616 5.14443 21.0136C5.05588 20.8657 5.00708 20.6974 5.00276 20.5251C4.99844 20.3527 5.03875 20.1822 5.11978 20.03L9.99978 10.96V3.5H13.9998V10.96L18.8798 20.03C18.9608 20.1822 19.0011 20.3527 18.9968 20.5251C18.9925 20.6974 18.9437 20.8657 18.8551 21.0136C18.7666 21.1616 18.6413 21.2841 18.4914 21.3693C18.3415 21.4545 18.1722 21.4995 17.9998 21.5Z" stroke="white" stroke-width="2" stroke-linecap="round" stroke-linejoin="round"/>
<path d="M9 3.5H15" stroke="white" stroke-width="2" stroke-linecap="round" stroke-linejoin="round"/>
</svg>
